<svg xmlns="http://www.w3.org/2000/svg" viewBox="0 0 118.68 28.65"><defs><style>.cls-1{fill:#0c004b;}.cls-2{fill:#c40a56;}</style></defs><g id="Ebene_2" data-name="Ebene 2"><g id="Ebene_1-2" data-name="Ebene 1"><path class="cls-1" d="M16.78,3A7.22,7.22,0,0,1,20,5.09a4.93,4.93,0,0,1,1.14,3.24,5.17,5.17,0,0,1-1.1,3.25,5.69,5.69,0,0,1-2.63,1.85.11.11,0,0,0,0,.21,5.84,5.84,0,0,1,3.15,2,6.21,6.21,0,0,1,1.33,4,5.76,5.76,0,0,1-1.17,3.58,7.47,7.47,0,0,1-3.34,2.36,14,14,0,0,1-5,.83H.67A.67.67,0,0,1,0,25.76v-23a.53.53,0,0,1,.53-.53H11.88A14.81,14.81,0,0,1,16.78,3Zm-3.59,8.19a2,2,0,0,0,.62-1.54,1.83,1.83,0,0,0-.62-1.47,2.53,2.53,0,0,0-1.69-.53H7.26a.11.11,0,0,0-.11.11V11.6a.11.11,0,0,0,.11.12H11.5A2.4,2.4,0,0,0,13.19,11.15Zm.5,9.31A2,2,0,0,0,13.3,17a3.9,3.9,0,0,0-1.8-.31H7.26a.11.11,0,0,0-.11.11v4.16a.11.11,0,0,0,.11.11H11.5A3.35,3.35,0,0,0,13.69,20.46Z"/><path class="cls-1" d="M43.84,3.4a12,12,0,0,1,4.74,4.47,12.19,12.19,0,0,1,1.71,6.4,12.45,12.45,0,0,1-1.71,6.48,12.06,12.06,0,0,1-4.74,4.52,13.82,13.82,0,0,1-6.75,1.64,13.84,13.84,0,0,1-6.77-1.64,12.12,12.12,0,0,1-4.71-4.52,12.45,12.45,0,0,1-1.71-6.48,12.19,12.19,0,0,1,1.71-6.4A12.06,12.06,0,0,1,30.32,3.4a14,14,0,0,1,6.77-1.63A13.92,13.92,0,0,1,43.84,3.4Zm-9.6,5.21A6.21,6.21,0,0,0,32.07,11a6.89,6.89,0,0,0-.81,3.33,7,7,0,0,0,.81,3.35,6.38,6.38,0,0,0,2.17,2.4,5.34,5.34,0,0,0,3,.88,5.11,5.11,0,0,0,2.88-.88,6.12,6.12,0,0,0,2.09-2.38,7.36,7.36,0,0,0,.76-3.37A7.22,7.22,0,0,0,42.17,11,6.06,6.06,0,0,0,40.1,8.61a5.14,5.14,0,0,0-2.9-.86A5.4,5.4,0,0,0,34.24,8.61Z"/><path class="cls-1" d="M86.5,2.22h6.3a.44.44,0,0,1,.44.44V26a.44.44,0,0,1-.44.44H86.5a.44.44,0,0,1-.44-.44V2.66A.44.44,0,0,1,86.5,2.22Z"/><path class="cls-1" d="M97.79,2.22H118.3a.38.38,0,0,1,.38.38v5a.38.38,0,0,1-.38.38H112a.38.38,0,0,0-.39.39V26.05a.38.38,0,0,1-.38.38H104.8a.38.38,0,0,1-.38-.38V8.34A.39.39,0,0,0,104,8H97.79a.39.39,0,0,1-.39-.38v-5A.39.39,0,0,1,97.79,2.22Z"/><path class="cls-2" d="M81,5.76a.41.41,0,0,0-.1-.52L75.77.13A.55.55,0,0,0,75,.19L66.91,8.28,58.82.19a.55.55,0,0,0-.77-.06L52.94,5.24a.45.45,0,0,0-.09.52L61.09,14l5.22,5.23a.87.87,0,0,0,.6.25.85.85,0,0,0,.59-.25L72.73,14Z"/><path class="cls-1" d="M60.13,15.67a.43.43,0,0,0-.61,0L52.29,22.9c-.11.12,0,.38.09.51l5.11,5.11a.55.55,0,0,0,.77-.06l7-7a.44.44,0,0,0,0-.62Z"/><path class="cls-1" d="M68.47,20.69a.42.42,0,0,0,0,.62l7.22,7.23a.44.44,0,0,0,.52-.1l5.11-5.1a.55.55,0,0,0-.06-.77l-7-7a.43.43,0,0,0-.61,0Z"/></g></g></svg>