<svg xmlns="http://www.w3.org/2000/svg" xmlns:xlink="http://www.w3.org/1999/xlink" width="500" zoomAndPan="magnify" viewBox="0 0 375 374.999991" height="500" preserveAspectRatio="xMidYMid meet" version="1.0"><defs><clipPath id="2faac2c320"><path d="M 169 111.910156 L 249 111.910156 L 249 192 L 169 192 Z M 169 111.910156 " clip-rule="nonzero"/></clipPath><clipPath id="fe10bb3b5a"><path d="M 112.664062 182.054688 L 262.332031 182.054688 L 262.332031 263.066406 L 112.664062 263.066406 Z M 112.664062 182.054688 " clip-rule="nonzero"/></clipPath></defs><rect x="-37.5" width="450" fill="#ffffff" y="-37.499999" height="449.999989" fill-opacity="1"/><rect x="-37.5" width="450" fill="#ffffff" y="-37.499999" height="449.999989" fill-opacity="1"/><path fill="#10006b" d="M 227.3125 136.046875 C 226.273438 135.277344 224.808594 135.492188 224.035156 136.53125 L 205.453125 161.546875 L 194.429688 148.460938 C 193.597656 147.472656 192.121094 147.34375 191.128906 148.179688 C 190.140625 149.011719 190.011719 150.492188 190.847656 151.480469 L 203.773438 166.832031 C 204.21875 167.363281 204.875 167.664062 205.566406 167.664062 C 205.589844 167.664062 205.613281 167.664062 205.636719 167.664062 C 206.351562 167.644531 207.019531 167.292969 207.445312 166.71875 L 227.796875 139.324219 C 228.566406 138.289062 228.351562 136.820312 227.3125 136.046875 " fill-opacity="1" fill-rule="nonzero"/><g clip-path="url(#2faac2c320)"><path fill="#10006b" d="M 209.277344 186.640625 C 189.960938 186.640625 174.246094 170.933594 174.246094 151.625 C 174.246094 132.320312 189.960938 116.609375 209.277344 116.609375 C 228.59375 116.609375 244.308594 132.320312 244.308594 151.625 C 244.308594 170.933594 228.59375 186.640625 209.277344 186.640625 Z M 209.277344 111.925781 C 187.378906 111.925781 169.5625 129.734375 169.5625 151.625 C 169.5625 173.519531 187.378906 191.328125 209.277344 191.328125 C 231.175781 191.328125 248.996094 173.519531 248.996094 151.625 C 248.996094 129.734375 231.175781 111.925781 209.277344 111.925781 " fill-opacity="1" fill-rule="nonzero"/></g><g clip-path="url(#fe10bb3b5a)"><path fill="#10006b" d="M 117.5 222.738281 L 128.636719 211.601562 C 128.734375 211.503906 128.863281 211.453125 128.996094 211.453125 C 129.125 211.453125 129.257812 211.503906 129.355469 211.601562 L 164.128906 246.375 C 164.328125 246.574219 164.328125 246.898438 164.128906 247.09375 L 152.992188 258.230469 C 152.871094 258.351562 152.730469 258.378906 152.632812 258.378906 C 152.535156 258.378906 152.394531 258.351562 152.273438 258.230469 L 117.5 223.457031 C 117.378906 223.335938 117.351562 223.195312 117.351562 223.097656 C 117.351562 223.003906 117.378906 222.863281 117.5 222.738281 Z M 152.542969 198.78125 C 154.359375 196.96875 156.769531 195.957031 159.335938 195.957031 L 177.617188 195.957031 C 180.183594 195.957031 182.597656 196.90625 184.410156 198.71875 L 188.957031 203.214844 L 213.375 203.214844 C 216.898438 203.214844 219.761719 206.042969 219.761719 209.5625 C 219.761719 213.082031 216.898438 215.910156 213.375 215.910156 L 184.25 215.910156 C 183.023438 215.910156 182.015625 216.945312 181.917969 218.148438 C 181.910156 218.210938 181.90625 218.308594 181.90625 218.371094 C 181.90625 219.667969 182.957031 220.746094 184.25 220.746094 L 213.375 220.746094 C 219.480469 220.746094 224.445312 215.792969 224.445312 209.691406 C 224.445312 208.390625 224.21875 207.152344 223.808594 205.992188 L 228.976562 205.351562 L 242.449219 190.253906 C 246.375 186.367188 252.515625 185.820312 257.074219 188.953125 C 257.675781 189.367188 257.835938 190.199219 257.429688 190.804688 L 242.554688 213.117188 C 241.433594 214.796875 240.105469 216.332031 238.597656 217.675781 L 224.3125 231.6875 C 221.421875 234.503906 217.609375 236.164062 213.570312 236.164062 L 160.324219 236.164062 L 139.046875 214.777344 L 137.851562 213.507812 Z M 148.957031 261.542969 C 149.941406 262.523438 151.246094 263.066406 152.632812 263.066406 C 154.019531 263.066406 155.324219 262.523438 156.304688 261.542969 L 167.441406 250.410156 C 169.464844 248.382812 169.464844 245.121094 167.441406 243.09375 L 165.007812 240.695312 L 213.570312 240.695312 C 218.835938 240.695312 223.8125 238.640625 227.585938 234.96875 L 241.757812 221.15625 C 243.542969 219.554688 245.125 217.722656 246.457031 215.726562 L 261.328125 193.40625 C 263.148438 190.679688 262.429688 186.949219 259.730469 185.09375 C 253.292969 180.667969 244.613281 181.464844 239.089844 186.988281 L 226.648438 200.921875 L 220.945312 201.507812 C 218.964844 199.648438 216.300781 198.375 213.375 198.375 L 190.898438 198.375 L 187.722656 195.40625 C 185.023438 192.707031 181.4375 191.425781 177.617188 191.425781 L 159.335938 191.425781 C 155.519531 191.425781 151.929688 192.835938 149.230469 195.535156 L 134.535156 210.191406 L 132.667969 208.308594 C 130.644531 206.28125 127.347656 206.273438 125.320312 208.300781 L 114.1875 219.429688 C 113.207031 220.410156 112.664062 221.710938 112.664062 223.101562 C 112.664062 224.488281 113.207031 225.792969 114.1875 226.773438 L 148.957031 261.542969 " fill-opacity="1" fill-rule="nonzero"/></g></svg>