<svg xmlns="http://www.w3.org/2000/svg" xmlns:xlink="http://www.w3.org/1999/xlink" width="500" zoomAndPan="magnify" viewBox="0 0 375 374.999991" height="500" preserveAspectRatio="xMidYMid meet" version="1.0"><defs><clipPath id="22786a66d8"><path d="M 112.578125 111.433594 L 262.578125 111.433594 L 262.578125 263.683594 L 112.578125 263.683594 Z M 112.578125 111.433594 " clip-rule="nonzero"/></clipPath><clipPath id="26bf16eb2b"><path d="M 214 116 L 262.578125 116 L 262.578125 166 L 214 166 Z M 214 116 " clip-rule="nonzero"/></clipPath></defs><rect x="-37.5" width="450" fill="#ffffff" y="-37.499999" height="449.999989" fill-opacity="1"/><rect x="-37.5" width="450" fill="#ffffff" y="-37.499999" height="449.999989" fill-opacity="1"/><g clip-path="url(#22786a66d8)"><path fill="#10006b" d="M 243.570312 244.28125 L 255.503906 232.582031 C 256.195312 231.90625 256.214844 230.800781 255.550781 230.097656 L 249.117188 223.335938 C 249.96875 221.824219 250.671875 220.328125 251.25 218.8125 L 260.332031 218.960938 C 261.261719 219.015625 262.113281 218.195312 262.132812 217.21875 L 262.441406 200.394531 C 262.460938 199.421875 261.683594 198.605469 260.699219 198.585938 L 252.472656 198.445312 C 252 196.546875 251.363281 194.703125 250.570312 192.945312 L 256.355469 187.28125 C 257.046875 186.601562 257.070312 185.496094 256.402344 184.792969 L 244.894531 172.667969 C 244.1875 171.925781 243.046875 171.960938 242.367188 172.621094 L 237.023438 177.847656 C 235.1875 176.769531 233.257812 175.886719 231.273438 175.203125 L 231.414062 167.800781 C 231.429688 166.824219 230.652344 166.011719 229.671875 165.996094 L 213.101562 165.710938 C 212.082031 165.6875 211.320312 166.472656 211.300781 167.449219 L 211.160156 174.855469 C 209.902344 175.242188 208.675781 175.730469 207.472656 176.273438 L 207.472656 126.257812 C 207.472656 126.246094 207.472656 126.238281 207.472656 126.230469 C 207.472656 116.898438 183.019531 111.863281 160.011719 111.863281 C 137.007812 111.863281 112.550781 116.898438 112.550781 126.230469 C 112.550781 126.265625 112.558594 126.300781 112.558594 126.34375 C 112.558594 164.546875 112.558594 203.53125 112.558594 246.988281 C 112.558594 257.472656 137.011719 263.128906 160.015625 263.128906 C 183.019531 263.128906 207.472656 257.472656 207.472656 246.988281 L 207.472656 237.242188 C 208.292969 237.605469 209.136719 237.941406 210 238.242188 L 209.8125 248.347656 C 209.792969 249.324219 210.570312 250.136719 211.554688 250.15625 L 228.121094 250.4375 C 228.128906 250.4375 228.140625 250.4375 228.152344 250.4375 C 229.113281 250.4375 229.90625 249.664062 229.921875 248.699219 L 230.109375 238.601562 C 231.546875 238.167969 232.917969 237.644531 234.199219 237.039062 L 241.042969 244.238281 C 241.730469 244.960938 242.871094 244.96875 243.570312 244.28125 Z M 160.011719 140.589844 C 171.699219 140.589844 194.625 139.019531 203.925781 132.046875 L 203.925781 156.46875 C 203.925781 156.488281 203.914062 156.5 203.914062 156.515625 C 203.914062 162.472656 185.878906 169.113281 160.003906 169.113281 C 134.199219 169.113281 116.203125 162.507812 116.101562 156.566406 L 116.101562 132.046875 C 125.410156 139.027344 148.34375 140.589844 160.011719 140.589844 Z M 160.003906 172.65625 C 177.75 172.65625 196.34375 169.285156 203.925781 162.9375 L 203.925781 186.625 C 203.925781 186.644531 203.914062 186.65625 203.914062 186.671875 C 203.914062 192.65625 185.480469 199.269531 160.003906 199.269531 C 134.199219 199.269531 116.203125 192.667969 116.101562 186.722656 L 116.101562 162.949219 C 123.695312 169.292969 142.273438 172.65625 160.003906 172.65625 Z M 116.101562 193.105469 C 123.695312 199.449219 142.273438 202.8125 160.003906 202.8125 C 170.855469 202.8125 194.890625 200.816406 203.925781 193.261719 L 203.925781 197.304688 L 203.621094 218.121094 C 201.253906 223.703125 184.019531 229.417969 160.011719 229.417969 C 134.199219 229.417969 116.203125 222.820312 116.101562 216.875 Z M 207.46875 216.855469 C 207.46875 216.84375 207.472656 216.835938 207.472656 216.824219 C 207.472656 216.816406 207.46875 216.816406 207.46875 216.8125 L 207.46875 197.941406 C 210.585938 193.753906 215.460938 191.253906 220.636719 191.253906 C 230.507812 191.359375 237.363281 199.398438 237.199219 208.335938 C 237.03125 217.464844 229.605469 224.890625 220.644531 224.890625 C 215.070312 224.828125 210.507812 222.328125 207.46875 218.269531 Z M 160.011719 115.410156 C 187.203125 115.410156 203.902344 121.699219 203.925781 126.21875 C 203.925781 130.738281 187.21875 137.042969 160.011719 137.042969 C 132.804688 137.042969 116.101562 130.738281 116.101562 126.21875 C 116.101562 126.210938 116.097656 126.207031 116.097656 126.203125 C 116.160156 121.6875 132.851562 115.410156 160.011719 115.410156 Z M 203.925781 246.984375 C 203.925781 252.945312 185.890625 259.582031 160.011719 259.582031 C 134.136719 259.582031 116.101562 252.945312 116.101562 246.984375 L 116.101562 223.257812 C 123.695312 229.597656 142.277344 232.964844 160.011719 232.964844 C 177.75 232.964844 196.339844 229.597656 203.925781 223.253906 Z M 233.738281 233.300781 C 232 234.234375 230.042969 234.984375 227.917969 235.53125 C 227.144531 235.730469 226.601562 236.417969 226.585938 237.214844 L 226.40625 246.863281 L 213.382812 246.640625 L 213.5625 237 C 213.578125 236.210938 213.066406 235.503906 212.3125 235.273438 C 210.609375 234.75 208.988281 234.097656 207.46875 233.324219 L 207.46875 223.507812 C 210.9375 226.5625 215.351562 228.390625 220.640625 228.4375 C 231.523438 228.4375 240.539062 219.449219 240.742188 208.402344 C 240.945312 197.546875 232.550781 187.820312 220.636719 187.710938 C 215.753906 187.710938 211.082031 189.523438 207.46875 192.703125 L 207.46875 180.1875 C 209.347656 179.207031 211.320312 178.445312 213.347656 177.917969 C 214.113281 177.722656 214.660156 177.035156 214.671875 176.238281 L 214.804688 169.285156 L 227.828125 169.507812 L 227.695312 176.453125 C 227.683594 177.25 228.203125 177.960938 228.964844 178.1875 C 231.535156 178.949219 234.003906 180.085938 236.308594 181.570312 C 237 182.015625 237.914062 181.921875 238.507812 181.347656 L 243.554688 176.410156 L 252.625 185.964844 L 247.183594 191.289062 C 246.632812 191.828125 246.492188 192.660156 246.835938 193.351562 C 247.964844 195.605469 248.796875 198.027344 249.308594 200.542969 C 249.476562 201.359375 250.1875 201.949219 251.019531 201.960938 L 258.859375 202.097656 L 258.621094 215.382812 L 250.039062 215.246094 C 249.296875 215.277344 248.574219 215.726562 248.328125 216.457031 C 247.632812 218.539062 246.675781 220.570312 245.402344 222.667969 C 244.984375 223.351562 245.078125 224.230469 245.628906 224.8125 L 251.777344 231.273438 L 242.375 240.492188 L 235.863281 233.640625 C 235.308594 233.0625 234.4375 232.925781 233.738281 233.300781 Z M 233.738281 233.300781 " fill-opacity="1" fill-rule="nonzero"/></g><g clip-path="url(#26bf16eb2b)"><path fill="#10006b" d="M 216.316406 146.835938 L 220.773438 146.914062 C 220.976562 147.449219 221.203125 147.984375 221.457031 148.511719 L 218.167969 151.730469 C 217.472656 152.40625 217.453125 153.519531 218.125 154.21875 L 224.507812 160.910156 C 225.207031 161.644531 226.351562 161.621094 227.03125 160.949219 L 230.546875 157.496094 C 230.957031 157.691406 231.382812 157.871094 231.816406 158.035156 L 231.722656 163.058594 C 231.707031 164.027344 232.480469 164.847656 233.464844 164.863281 L 242.632812 165.023438 C 242.640625 165.023438 242.652344 165.023438 242.660156 165.023438 C 243.625 165.023438 244.414062 164.253906 244.433594 163.285156 L 244.527344 158.257812 C 244.972656 158.109375 245.402344 157.945312 245.820312 157.765625 L 249.226562 161.34375 C 249.871094 162.027344 251.007812 162.113281 251.746094 161.386719 L 258.355469 154.925781 C 259.046875 154.246094 259.066406 153.136719 258.398438 152.4375 L 255.230469 149.105469 C 255.503906 148.585938 255.753906 148.0625 255.972656 147.53125 L 260.453125 147.609375 C 261.503906 147.671875 262.238281 146.847656 262.257812 145.871094 L 262.429688 136.554688 C 262.449219 135.582031 261.667969 134.765625 260.6875 134.75 L 256.734375 134.679688 C 256.53125 133.96875 256.289062 133.273438 256.011719 132.601562 L 258.816406 129.855469 C 259.507812 129.175781 259.527344 128.070312 258.863281 127.367188 L 252.496094 120.65625 C 251.796875 119.917969 250.652344 119.949219 249.972656 120.609375 L 247.441406 123.085938 C 246.710938 122.691406 245.964844 122.347656 245.191406 122.054688 L 245.257812 118.523438 C 245.277344 117.550781 244.5 116.734375 243.515625 116.71875 L 234.351562 116.558594 C 234.339844 116.558594 234.328125 116.558594 234.320312 116.558594 C 233.355469 116.558594 232.566406 117.332031 232.546875 118.296875 L 232.484375 121.832031 C 231.707031 122.09375 230.941406 122.414062 230.199219 122.78125 L 227.78125 120.226562 C 227.082031 119.480469 225.933594 119.511719 225.253906 120.175781 L 218.625 126.660156 C 217.933594 127.339844 217.914062 128.449219 218.582031 129.148438 L 221.285156 131.992188 C 220.980469 132.652344 220.714844 133.339844 220.484375 134.046875 L 216.546875 133.976562 C 216.539062 133.976562 216.527344 133.976562 216.515625 133.976562 C 215.550781 133.976562 214.761719 134.75 214.742188 135.71875 L 214.574219 145.03125 C 214.558594 146.003906 215.335938 146.816406 216.316406 146.835938 Z M 218.257812 137.550781 L 221.789062 137.613281 C 222.636719 137.65625 223.347656 137.066406 223.539062 136.257812 C 223.863281 134.925781 224.347656 133.671875 224.980469 132.527344 C 225.351562 131.851562 225.242188 131.007812 224.710938 130.449219 L 222.355469 127.96875 L 226.445312 123.96875 L 228.558594 126.203125 C 229.128906 126.808594 230.042969 126.933594 230.753906 126.511719 C 231.992188 125.777344 233.3125 125.222656 234.679688 124.871094 C 235.449219 124.667969 235.992188 123.980469 236.007812 123.1875 L 236.0625 120.132812 L 241.683594 120.234375 L 241.625 123.285156 C 241.613281 124.082031 242.128906 124.789062 242.894531 125.015625 C 244.246094 125.417969 245.546875 126.019531 246.757812 126.796875 C 247.449219 127.238281 248.363281 127.148438 248.957031 126.570312 L 251.171875 124.402344 L 255.09375 128.542969 L 252.644531 130.941406 C 252.089844 131.480469 251.953125 132.320312 252.300781 133.007812 C 252.894531 134.175781 253.328125 135.445312 253.601562 136.785156 C 253.765625 137.597656 254.476562 138.1875 255.308594 138.203125 L 258.859375 138.261719 L 258.75 144.035156 L 254.789062 143.964844 C 254.113281 143.972656 253.324219 144.445312 253.078125 145.175781 C 252.707031 146.28125 252.1875 147.378906 251.535156 148.4375 C 251.109375 149.125 251.203125 150.011719 251.761719 150.59375 L 254.632812 153.613281 L 250.558594 157.597656 L 247.507812 154.394531 C 246.964844 153.816406 246.097656 153.675781 245.394531 154.050781 C 244.46875 154.539062 243.441406 154.933594 242.335938 155.21875 C 241.566406 155.417969 241.023438 156.109375 241.007812 156.902344 L 240.925781 161.453125 L 235.304688 161.351562 L 235.386719 156.804688 C 235.402344 156.007812 234.882812 155.296875 234.117188 155.070312 C 233.023438 154.746094 232.011719 154.316406 231.109375 153.796875 C 230.417969 153.398438 229.550781 153.507812 228.984375 154.070312 L 225.835938 157.164062 L 221.898438 153.039062 L 224.882812 150.121094 C 225.460938 149.554688 225.582031 148.671875 225.183594 147.972656 C 224.566406 146.902344 224.089844 145.789062 223.761719 144.664062 C 223.539062 143.917969 222.863281 143.402344 222.089844 143.390625 L 218.152344 143.320312 Z M 218.257812 137.550781 " fill-opacity="1" fill-rule="nonzero"/></g><path fill="#10006b" d="M 238.292969 152.855469 C 238.304688 152.855469 238.492188 152.855469 238.503906 152.855469 C 244.953125 152.855469 250.300781 147.535156 250.421875 140.992188 C 250.539062 134.570312 245.621094 128.847656 238.523438 128.730469 C 232.0625 128.730469 226.707031 134.042969 226.585938 140.570312 C 226.460938 147.238281 231.683594 152.738281 238.292969 152.855469 Z M 238.667969 132.273438 C 238.671875 132.273438 238.671875 132.273438 238.671875 132.273438 C 243.28125 132.355469 246.964844 136.222656 246.878906 140.929688 C 246.796875 145.550781 243.039062 149.3125 238.503906 149.3125 L 238.503906 151.082031 L 238.355469 149.3125 C 233.726562 149.230469 230.039062 145.363281 230.132812 140.636719 C 230.214844 136.023438 233.980469 132.273438 238.667969 132.273438 Z M 238.667969 132.273438 " fill-opacity="1" fill-rule="nonzero"/></svg>