<svg xmlns="http://www.w3.org/2000/svg" xmlns:xlink="http://www.w3.org/1999/xlink" width="500" zoomAndPan="magnify" viewBox="0 0 375 374.999991" height="500" preserveAspectRatio="xMidYMid meet" version="1.0"><defs><clipPath id="db5f11d0eb"><path d="M 130 148.585938 L 262.484375 148.585938 L 262.484375 226.585938 L 130 226.585938 Z M 130 148.585938 " clip-rule="nonzero"/></clipPath><clipPath id="7361112dff"><path d="M 112.484375 172 L 166 172 L 166 177 L 112.484375 177 Z M 112.484375 172 " clip-rule="nonzero"/></clipPath></defs><rect x="-37.5" width="450" fill="#ffffff" y="-37.499999" height="449.999989" fill-opacity="1"/><rect x="-37.5" width="450" fill="#ffffff" y="-37.499999" height="449.999989" fill-opacity="1"/><g clip-path="url(#db5f11d0eb)"><path fill="#10006b" d="M 261.855469 184.1875 L 248.296875 163.683594 C 247.929688 163.128906 247.414062 162.851562 246.746094 162.851562 L 224.0625 162.851562 L 226.265625 150.855469 C 226.316406 150.582031 226.304688 150.3125 226.234375 150.046875 C 226.167969 149.78125 226.042969 149.542969 225.867188 149.328125 C 225.691406 149.117188 225.476562 148.953125 225.226562 148.835938 C 224.976562 148.71875 224.714844 148.660156 224.441406 148.660156 L 150.703125 148.660156 C 150.484375 148.660156 150.273438 148.699219 150.070312 148.769531 C 149.867188 148.84375 149.679688 148.953125 149.515625 149.089844 C 149.347656 149.230469 149.210938 149.394531 149.097656 149.582031 C 148.988281 149.765625 148.914062 149.96875 148.875 150.179688 L 146.867188 161.09375 L 134.273438 161.09375 C 134.023438 161.09375 133.789062 161.140625 133.5625 161.234375 C 133.332031 161.328125 133.132812 161.464844 132.957031 161.636719 C 132.785156 161.8125 132.648438 162.011719 132.554688 162.238281 C 132.460938 162.46875 132.414062 162.703125 132.414062 162.949219 C 132.414062 163.195312 132.460938 163.433594 132.554688 163.660156 C 132.648438 163.890625 132.785156 164.089844 132.957031 164.265625 C 133.132812 164.4375 133.332031 164.574219 133.5625 164.667969 C 133.789062 164.761719 134.023438 164.808594 134.273438 164.808594 L 156.265625 164.808594 C 156.511719 164.808594 156.75 164.761719 156.976562 164.667969 C 157.203125 164.574219 157.402344 164.4375 157.578125 164.265625 C 157.753906 164.089844 157.886719 163.890625 157.980469 163.660156 C 158.074219 163.433594 158.121094 163.195312 158.121094 162.949219 C 158.121094 162.703125 158.074219 162.46875 157.980469 162.238281 C 157.886719 162.011719 157.753906 161.8125 157.578125 161.636719 C 157.402344 161.464844 157.203125 161.328125 156.976562 161.234375 C 156.75 161.140625 156.511719 161.09375 156.265625 161.09375 L 150.644531 161.09375 L 152.25 152.375 L 222.210938 152.375 L 211.117188 212.777344 L 182.417969 212.777344 C 182.324219 211.867188 182.125 210.980469 181.816406 210.121094 C 181.507812 209.257812 181.101562 208.449219 180.59375 207.6875 C 180.089844 206.925781 179.496094 206.234375 178.824219 205.617188 C 178.148438 205 177.410156 204.472656 176.605469 204.039062 C 175.246094 203.320312 173.796875 202.902344 172.261719 202.785156 C 170.726562 202.667969 169.230469 202.867188 167.777344 203.375 C 166.296875 203.882812 164.964844 204.648438 163.777344 205.671875 C 162.589844 206.691406 161.632812 207.894531 160.90625 209.285156 C 160.320312 210.386719 159.90625 211.550781 159.667969 212.777344 L 141.171875 212.777344 L 144.191406 196.320312 L 150.484375 196.320312 C 150.730469 196.320312 150.964844 196.273438 151.195312 196.179688 C 151.421875 196.085938 151.621094 195.949219 151.796875 195.777344 C 151.96875 195.601562 152.105469 195.402344 152.199219 195.175781 C 152.292969 194.945312 152.339844 194.710938 152.339844 194.464844 C 152.339844 194.21875 152.292969 193.980469 152.199219 193.753906 C 152.105469 193.523438 151.96875 193.324219 151.796875 193.148438 C 151.621094 192.976562 151.421875 192.839844 151.195312 192.746094 C 150.964844 192.652344 150.730469 192.605469 150.484375 192.605469 L 132.425781 192.605469 C 132.179688 192.605469 131.941406 192.652344 131.714844 192.746094 C 131.488281 192.839844 131.285156 192.976562 131.113281 193.148438 C 130.9375 193.324219 130.804688 193.523438 130.710938 193.753906 C 130.613281 193.980469 130.566406 194.21875 130.566406 194.464844 C 130.566406 194.710938 130.613281 194.945312 130.710938 195.175781 C 130.804688 195.402344 130.9375 195.601562 131.113281 195.777344 C 131.285156 195.949219 131.488281 196.085938 131.714844 196.179688 C 131.941406 196.273438 132.179688 196.320312 132.425781 196.320312 L 140.414062 196.320312 L 137.117188 214.304688 C 137.066406 214.578125 137.078125 214.84375 137.148438 215.113281 C 137.21875 215.378906 137.339844 215.617188 137.515625 215.828125 C 137.691406 216.042969 137.90625 216.207031 138.15625 216.324219 C 138.40625 216.441406 138.667969 216.5 138.941406 216.5 L 159.519531 216.5 C 159.609375 217.410156 159.808594 218.296875 160.117188 219.15625 C 160.425781 220.019531 160.832031 220.832031 161.339844 221.59375 C 161.847656 222.355469 162.4375 223.046875 163.113281 223.664062 C 163.789062 224.28125 164.527344 224.808594 165.332031 225.246094 C 166.933594 226.097656 168.644531 226.523438 170.457031 226.519531 C 171.554688 226.507812 172.625 226.347656 173.679688 226.042969 C 174.730469 225.738281 175.722656 225.296875 176.652344 224.722656 C 177.585938 224.148438 178.425781 223.460938 179.171875 222.660156 C 179.917969 221.859375 180.542969 220.972656 181.046875 220 C 181.632812 218.894531 182.046875 217.726562 182.285156 216.5 L 220.476562 216.5 C 220.570312 217.410156 220.769531 218.296875 221.078125 219.15625 C 221.386719 220.019531 221.792969 220.832031 222.300781 221.59375 C 222.804688 222.355469 223.398438 223.046875 224.074219 223.664062 C 224.746094 224.28125 225.488281 224.808594 226.292969 225.246094 C 227.894531 226.097656 229.601562 226.523438 231.417969 226.519531 C 232.511719 226.507812 233.585938 226.347656 234.636719 226.042969 C 235.6875 225.738281 236.679688 225.296875 237.613281 224.722656 C 238.546875 224.148438 239.382812 223.460938 240.128906 222.660156 C 240.875 221.859375 241.5 220.972656 242.003906 220 C 242.59375 218.894531 243.007812 217.726562 243.242188 216.5 L 252.988281 216.5 C 253.414062 216.5 253.796875 216.367188 254.132812 216.105469 C 254.46875 215.839844 254.6875 215.503906 254.789062 215.089844 L 262.109375 185.671875 C 262.242188 185.140625 262.15625 184.644531 261.855469 184.1875 Z M 177.761719 218.238281 C 177.546875 218.722656 177.285156 219.183594 176.976562 219.617188 C 176.671875 220.046875 176.320312 220.445312 175.929688 220.804688 C 175.542969 221.164062 175.117188 221.484375 174.664062 221.757812 C 174.207031 222.027344 173.730469 222.253906 173.226562 222.425781 C 172.726562 222.601562 172.210938 222.722656 171.6875 222.789062 C 171.160156 222.859375 170.632812 222.871094 170.101562 222.832031 C 169.570312 222.792969 169.050781 222.695312 168.542969 222.546875 C 168.03125 222.398438 167.542969 222.203125 167.074219 221.953125 C 166.605469 221.703125 166.167969 221.410156 165.757812 221.070312 C 165.351562 220.730469 164.980469 220.351562 164.652344 219.933594 C 164.320312 219.519531 164.039062 219.074219 163.800781 218.597656 C 163.5625 218.125 163.375 217.628906 163.238281 217.117188 C 163.101562 216.601562 163.019531 216.082031 162.992188 215.550781 C 162.964844 215.019531 162.992188 214.492188 163.070312 213.96875 C 163.152344 213.445312 163.285156 212.933594 163.472656 212.433594 C 163.660156 211.9375 163.894531 211.464844 164.175781 211.015625 C 164.683594 210.046875 165.351562 209.203125 166.179688 208.488281 C 167.007812 207.773438 167.9375 207.238281 168.972656 206.878906 C 169.78125 206.601562 170.609375 206.464844 171.464844 206.460938 C 172.667969 206.457031 173.800781 206.742188 174.859375 207.304688 C 175.3125 207.570312 175.738281 207.875 176.128906 208.222656 C 176.523438 208.570312 176.878906 208.953125 177.195312 209.371094 C 177.515625 209.789062 177.789062 210.234375 178.019531 210.703125 C 178.25 211.175781 178.433594 211.664062 178.566406 212.171875 C 178.703125 212.679688 178.785156 213.195312 178.820312 213.71875 C 178.851562 214.242188 178.835938 214.765625 178.765625 215.285156 C 178.695312 215.804688 178.578125 216.3125 178.40625 216.8125 C 178.238281 217.308594 178.023438 217.785156 177.761719 218.238281 Z M 238.71875 218.238281 C 238.503906 218.722656 238.242188 219.183594 237.9375 219.617188 C 237.628906 220.046875 237.277344 220.445312 236.890625 220.804688 C 236.5 221.164062 236.078125 221.484375 235.621094 221.757812 C 235.164062 222.027344 234.6875 222.253906 234.183594 222.425781 C 233.683594 222.601562 233.167969 222.722656 232.644531 222.789062 C 232.117188 222.859375 231.589844 222.871094 231.058594 222.832031 C 230.53125 222.789062 230.011719 222.695312 229.5 222.546875 C 228.988281 222.398438 228.5 222.203125 228.03125 221.953125 C 227.5625 221.703125 227.125 221.40625 226.714844 221.066406 C 226.308594 220.726562 225.9375 220.351562 225.609375 219.933594 C 225.28125 219.519531 224.996094 219.074219 224.757812 218.597656 C 224.519531 218.125 224.332031 217.628906 224.195312 217.117188 C 224.058594 216.601562 223.976562 216.082031 223.949219 215.550781 C 223.921875 215.019531 223.949219 214.492188 224.027344 213.96875 C 224.109375 213.445312 224.242188 212.933594 224.429688 212.433594 C 224.617188 211.9375 224.851562 211.464844 225.132812 211.015625 C 225.640625 210.046875 226.3125 209.207031 227.140625 208.492188 C 227.972656 207.78125 228.902344 207.246094 229.9375 206.890625 C 230.746094 206.613281 231.574219 206.472656 232.429688 206.472656 C 233.632812 206.46875 234.765625 206.75 235.824219 207.316406 C 236.277344 207.582031 236.699219 207.886719 237.09375 208.234375 C 237.484375 208.582031 237.839844 208.964844 238.15625 209.382812 C 238.472656 209.800781 238.746094 210.242188 238.976562 210.714844 C 239.207031 211.1875 239.386719 211.675781 239.523438 212.179688 C 239.65625 212.6875 239.742188 213.203125 239.773438 213.726562 C 239.808594 214.25 239.789062 214.769531 239.71875 215.289062 C 239.652344 215.808594 239.53125 216.316406 239.363281 216.8125 C 239.195312 217.308594 238.980469 217.785156 238.71875 218.238281 Z M 251.535156 212.769531 L 243.375 212.769531 C 243.28125 211.859375 243.082031 210.972656 242.769531 210.113281 C 242.460938 209.25 242.054688 208.441406 241.546875 207.679688 C 241.039062 206.917969 240.449219 206.230469 239.773438 205.613281 C 239.097656 204.996094 238.355469 204.472656 237.554688 204.035156 C 236.191406 203.316406 234.746094 202.898438 233.210938 202.785156 C 231.675781 202.667969 230.179688 202.863281 228.726562 203.371094 C 227.246094 203.882812 225.914062 204.648438 224.726562 205.667969 C 223.539062 206.691406 222.582031 207.894531 221.855469 209.28125 C 221.269531 210.386719 220.855469 211.550781 220.617188 212.777344 L 214.894531 212.777344 L 223.425781 166.566406 L 245.75 166.566406 L 258.308594 185.558594 Z M 251.535156 212.769531 " fill-opacity="1" fill-rule="nonzero"/></g><path fill="#10006b" d="M 242.554688 169.515625 L 228.355469 169.515625 C 228.140625 169.515625 227.929688 169.554688 227.726562 169.628906 C 227.519531 169.703125 227.335938 169.808594 227.167969 169.945312 C 227.003906 170.085938 226.863281 170.25 226.753906 170.4375 C 226.644531 170.625 226.570312 170.824219 226.53125 171.039062 L 224.367188 182.761719 C 224.316406 183.03125 224.324219 183.300781 224.394531 183.570312 C 224.464844 183.835938 224.589844 184.074219 224.765625 184.285156 C 224.941406 184.496094 225.152344 184.664062 225.402344 184.78125 C 225.652344 184.898438 225.914062 184.957031 226.191406 184.957031 L 250.289062 184.941406 C 250.632812 184.941406 250.949219 184.851562 251.242188 184.675781 C 251.535156 184.5 251.761719 184.261719 251.925781 183.960938 C 252.085938 183.660156 252.160156 183.339844 252.144531 183 C 252.128906 182.65625 252.027344 182.34375 251.839844 182.058594 L 244.097656 170.359375 C 243.734375 169.800781 243.21875 169.523438 242.554688 169.515625 Z M 228.429688 181.242188 L 229.902344 173.230469 L 241.554688 173.230469 L 246.839844 181.226562 Z M 228.429688 181.242188 " fill-opacity="1" fill-rule="nonzero"/><g clip-path="url(#7361112dff)"><path fill="#10006b" d="M 165.257812 174.269531 C 165.257812 174.023438 165.210938 173.785156 165.113281 173.558594 C 165.019531 173.328125 164.886719 173.128906 164.710938 172.953125 C 164.539062 172.78125 164.335938 172.644531 164.109375 172.550781 C 163.882812 172.457031 163.644531 172.410156 163.398438 172.410156 L 114.5 172.410156 C 114.253906 172.410156 114.019531 172.457031 113.789062 172.550781 C 113.5625 172.644531 113.363281 172.78125 113.1875 172.953125 C 113.015625 173.128906 112.878906 173.328125 112.785156 173.558594 C 112.691406 173.785156 112.644531 174.023438 112.644531 174.269531 C 112.644531 174.515625 112.691406 174.75 112.785156 174.980469 C 112.878906 175.207031 113.015625 175.40625 113.1875 175.582031 C 113.363281 175.753906 113.5625 175.890625 113.789062 175.984375 C 114.019531 176.078125 114.253906 176.125 114.5 176.125 L 163.398438 176.125 C 163.644531 176.125 163.882812 176.078125 164.109375 175.984375 C 164.335938 175.890625 164.539062 175.753906 164.710938 175.582031 C 164.886719 175.40625 165.019531 175.207031 165.113281 174.980469 C 165.210938 174.75 165.257812 174.515625 165.257812 174.269531 Z M 165.257812 174.269531 " fill-opacity="1" fill-rule="nonzero"/></g><path fill="#10006b" d="M 158.945312 184.820312 C 158.945312 184.574219 158.898438 184.339844 158.804688 184.109375 C 158.710938 183.882812 158.574219 183.683594 158.402344 183.507812 C 158.226562 183.335938 158.027344 183.199219 157.796875 183.105469 C 157.570312 183.011719 157.332031 182.964844 157.085938 182.964844 L 122.601562 182.964844 C 122.355469 182.964844 122.117188 183.011719 121.890625 183.105469 C 121.664062 183.199219 121.460938 183.335938 121.289062 183.507812 C 121.113281 183.683594 120.980469 183.882812 120.886719 184.109375 C 120.792969 184.339844 120.746094 184.574219 120.746094 184.820312 C 120.746094 185.066406 120.792969 185.304688 120.886719 185.53125 C 120.980469 185.761719 121.113281 185.960938 121.289062 186.136719 C 121.460938 186.308594 121.664062 186.441406 121.890625 186.539062 C 122.117188 186.632812 122.355469 186.679688 122.601562 186.679688 L 157.085938 186.679688 C 157.332031 186.679688 157.570312 186.632812 157.796875 186.539062 C 158.027344 186.441406 158.226562 186.308594 158.402344 186.136719 C 158.574219 185.960938 158.710938 185.761719 158.804688 185.53125 C 158.898438 185.304688 158.945312 185.066406 158.945312 184.820312 Z M 158.945312 184.820312 " fill-opacity="1" fill-rule="nonzero"/></svg>