<svg xmlns="http://www.w3.org/2000/svg" viewBox="0 0 29.21 28.65"><defs><style>.cls-1{fill:#c90055;}.cls-2{fill:#fff;}</style></defs><g id="Ebene_2" data-name="Ebene 2"><g id="Ebene_1-2" data-name="Ebene 1"><path class="cls-1" d="M28.73,5.76a.42.42,0,0,0-.09-.52L23.53.13a.55.55,0,0,0-.77.06L14.67,8.28,6.58.19A.54.54,0,0,0,5.82.13L.71,5.24a.47.47,0,0,0-.1.52L8.85,14l5.23,5.23a.85.85,0,0,0,.59.25.87.87,0,0,0,.6-.25L20.49,14Z"/><path class="cls-2" d="M7.9,15.67a.44.44,0,0,0-.62,0L.05,22.9a.43.43,0,0,0,.1.51l5.1,5.11A.55.55,0,0,0,6,28.46l7-7a.44.44,0,0,0,0-.62Z"/><path class="cls-2" d="M16.23,20.69a.44.44,0,0,0,0,.62l7.23,7.23a.43.43,0,0,0,.51-.1l5.11-5.1a.54.54,0,0,0-.06-.77l-7-7a.44.44,0,0,0-.62,0Z"/></g></g></svg>